<svg xmlns="http://www.w3.org/2000/svg" width="1280" height="640" stroke="#000" stroke-linecap="round" stroke-linejoin="round" fill="#fff" fill-rule="evenodd"><defs><linearGradient id="A" x1="0%" y1="0%" x2="100%" y2="100%"><stop offset="0%" stop-color="#fff"/><stop offset="100%" stop-color="#c7c7c7"/></linearGradient><linearGradient id="B" x1="39%" y1="100%" x2="61%" y2="0%"><stop offset="0%" stop-color="#fe881e"/><stop offset="100%" stop-color="#feab29"/></linearGradient><linearGradient id="C" x1="83%" y1="0%" x2="17%" y2="100%"><stop offset="1%" stop-color="#b93208"/><stop offset="100%" stop-color="#722b15"/></linearGradient><linearGradient id="D" x1="100%" y1="67%" x2="0%" y2="33%"><stop offset="1%" stop-color="#b93208"/><stop offset="100%" stop-color="#722b15"/></linearGradient><path id="E" d="M788.8 479.5h-12v-55h8l3.7 2.5q2.6-1.7 5.5-2.7 3-1 7.4-1 7.2 0 11.6 2 4.5 2 6 3l-3.4 10.7q-1.2-.7-4-2-2.6-1.2-6.3-2.2-3.6-1-8-1h-1q-4.6 0-6 2.3-1.4 2.3-1.5 7.7v35.7z"/><path id="F" d="M245 559h-1.7q-1.2 0-2.3-.5-1-.4-2-1.3-1-.8-1.3-2-.5-1-.5-2.3v-9.3q0-1.2.5-2.3.4-1 1.3-2 .8-1 2-1.3 1-.5 2.3-.5h1.7q1.2 0 2.3.5 1 .4 2 1.3.8.8 1.3 2 .5 1 .5 2.3v9.3q0 1.2-.5 2.3-.5 1-1.3 2-.8 1-2 1.3-1 .5-2.3.5zm3.5-6v-9.5q0-.8-.3-1.4-.2-.7-.7-1-.5-.5-1-.8-.7-.3-1.4-.3h-1.7q-.7 0-1.4.3-.6.3-1 .8-.5.4-.8 1-.2.6-.2 1.4v9.5q0 .8.2 1.4.3.7.8 1 .5.5 1 .8.7.3 1.4.3h1.7q.7 0 1.4-.3.6-.3 1-.8.5-.4.7-1 .3-.6.3-1.4z"/><path id="G" d="M269.7 558.6h-.8l-1.4-2q-.8 1.2-2 1.8-1.3.7-2.8.7h-.6q-1.2 0-2.3-.5-1-.4-2-1.3-1-.8-1.3-2-.5-1-.5-2.3v-15h2.5v15q0 .7.2 1.4.3.7.8 1 .5.5 1 .8.7.3 1.4.3h1.7q.7 0 1.4-.3.6-.3 1-.8.5-.4.7-1 .3-.7.3-1.4v-15h2.5v20.5z"/><path id="H" d="M283 540.4h-2.5q-.7 0-1.4.3-.6.3-1 .8-.5.5-.8 1-.2.7-.2 1.4v14.6h-2.5V538h.8l1.4 2q.8-1.2 2-1.8 1.2-.7 2.7-.7h1.5v2.7z"/><path id="I" d="M407 559h-1.7q-1.2 0-2.3-.5-1-.4-2-1.3-1-.8-1.3-2-.5-1-.5-2.3v-9.3q0-1.2.5-2.3.4-1 1.3-2 .8-1 2-1.3 1-.5 2.3-.5h1.7q1.2 0 2.3.5 1 .4 2 1.3.8.8 1.3 2 .5 1 .5 2.3v4.8h-11.2v4.6q0 .8.2 1.4.3.7.8 1 .5.5 1 .8.7.3 1.4.3h1.7q.7 0 1.4-.3.6-.3 1-.8.5-.4.7-1 .3-.6.3-1.4v-1.4l2.5.4v1q0 1.2-.5 2.3-.5 1-1.3 2-.8 1-2 1.3-1 .5-2.3.5zm3.5-12.4v-3q0-.8-.3-1.4-.2-.7-.7-1-.5-.5-1-.8-.7-.3-1.4-.3h-1.7q-.7 0-1.4.3-.6.3-1 .8-.5.4-.8 1-.2.6-.2 1.4v3h8.7z"/><path id="J" d="M497 558.6h-1.4l-12-21-.2-1.2v22h-2.6V530h1.3l12 21 .3 1.2v-22h2.6v28.7z"/><path id="K" d="M541.3 559h-1.7q-1.2 0-2.3-.5-1.2-.4-2-1.3-1-.8-1.4-2-.5-1-.5-2.3v-1l2.5-.4v1.4q0 .8.3 1.4.3.7.8 1 .5.5 1.2.8.7.3 1.4.3h1.7q.7 0 1.4-.2.7-.3 1.2-.7.5-.4.8-1 .3-.5.3-1.3 0-1-.4-1.8-.5-.7-1.3-1.2-.8-.4-1.8-.7-1-.4-2-.7-1-.3-2-.7-1-.4-1.8-1-.8-.7-1.3-1.7-.5-1-.5-2.4 0-1.2.5-2.3.5-1 1.3-1.7.8-.8 2-1.2 1-.4 2.3-.4h1.5q1.2 0 2.3.5 1 .4 2 1.3.8.8 1.3 2 .5 1 .5 2.3v.1l-2.5.4v-.6q0-.8-.3-1.4-.2-.7-.7-1-.5-.5-1-.8-.7-.3-1.4-.3h-1.5q-.7 0-1.4.2-.6.3-1 .7-.5.4-.8 1-.2.5-.2 1.3 0 1 .4 1.7.5.7 1.3 1 .8.5 1.8.8 1 .3 2 .7 1 .3 2 .7 1 .4 1.8 1 .8.6 1.3 1.6.5 1 .5 2.5 0 1.2-.5 2.3-.5 1-1.4 1.7-.8.8-2 1.2-1 .4-2.3.4z"/><path id="L" d="M684.6 558.6h-2.2q-1 0-2-.4-1-.4-1.7-1.2-.8-.7-1.2-1.7-.4-1-.4-2v-12.7h-3.7V538h3.7v-5l2.4-.4v5.3h5.2v2.4h-5.2v12.8q0 .7.3 1.2.2.5.6 1 .4.4 1 .6.6.3 1.2.3h2.2v2.3z"/><path id="M" d="M902 559h-.7q-1.3 0-2.5-.6-1.2-.5-2-1.5v10h-2.5V538h.8l1.4 2q.8-1.2 2-1.8 1.2-.7 2.7-.7h.7q1.2 0 2.3.5 1 .4 2 1.3.8.8 1.3 2 .5 1 .5 2.3v9.3q0 1.2-.5 2.3-.5 1-1.3 2-.8 1-2 1.3-1 .5-2.3.5zm3.5-6v-9.5q0-.8-.3-1.4-.2-.7-.7-1-.5-.5-1-.8-.7-.3-1.4-.3h-1.7q-.7 0-1.4.3-.6.3-1 .8-.5.4-.8 1-.2.6-.2 1.4v9.5q0 .8.2 1.4.3.7.8 1 .5.5 1 .8.7.3 1.4.3h1.7q.7 0 1.4-.3.6-.3 1-.8.5-.4.7-1 .3-.6.3-1.4z"/></defs><g stroke="none"><circle cx="633" cy="224.5" fill="url(#A)" r="145"/><circle cx="731.7" cy="116.7" r="17.8"/><circle cx="516.7" cy="126.7" r="17.8"/><circle cx="487" cy="242" r="12.5"/><circle cx="779.5" cy="230.2" r="15"/><circle cx="517" cy="322" r="17.5"/></g><g fill="#4f4f4f" stroke="none"><path d="M341.4 479.4h-12v-55h8l4 2.5q4-1 10-1.8 5.8-.7 13.2-.7h5q5 0 7.5 1.7 2.6 1.7 3.8 4.3 1 2.6 1.3 5.2.3 2.7.3 4.5v39.3h-12V440q0-5-4.7-5h-21.3q-2 0-2.4.4-.6.4-.6 2.3v41.7zm69.6 0h-5q-7.5 0-10.8-4.3-3.3-4.4-3.3-12 0-8 3.5-12.3 3.4-4.3 10.6-4.3h5q7.3 0 13.2.5 5.8.5 9.6 1v-8q0-1-.2-2.3-.2-1.2-1-2-1-.7-3.4-.7h-4.8q-10.7 0-17.8.4-7.2.4-9.7.8l-1-9.3q0-1.8 7.4-2 7.5-.4 25-.4h5q4.8 0 7.5 1.7 2.6 1.7 3.7 4.3 1.2 2.6 1.4 5.2.3 2.7.3 4.5v39.3h-8L434 477q-4 .8-9.8 1.6-5.8.8-13.2.8zm-2.4-10.5H431q2 0 2.5-.5.4-.5.4-3V456h-25.3q-2.6 0-3.6 1.6-1 1.6-1 5 0 3.4 1.2 5 1.2 1.5 3.5 1.5zm60.4 10.5h-12v-55h8l2.5 1.5q2.8-.6 7-1 4-.4 9.8-.4h5q2.8 0 5.4 1 2.7 1 4 2.7 2.6-1.6 7-2.6 4.5-1 11.7-1h5q5 0 7.5 1.7 2.7 1.7 3.8 4.3 1 2.6 1.4 5.2.2 2.7.2 4.5v39.3h-12V440q0-5-4.7-5H505q-1.6 0-2.2.5-.5.4-.5 2.2v41.7h-12V440q0-5-4.7-5H472q-2 0-2.4.4-.6.4-.6 2.3v41.7zm109 0h-19.6q-5 0-7.5-1.6-2.7-1.6-3.8-4-1-2.5-1.4-5.2-.2-2.7-.2-5V440q0-1.8.2-4.5.3-2.6 1.4-5.2 1-2.6 3.8-4.3 2.7-1.7 7.5-1.7h21q6.5 0 10 1.5 3.7 1.6 5.2 5 1.5 3.5 1.5 9.2v18.2h-17q-8.8 0-14.3-.5-5.5-.5-7.4-.6v6.8q-.1 5 4.7 5h5q5.3 0 10.3-.2 5-.2 9.2-.5 4.3-.3 6.8-.6l4 8q0 3.8-19.3 3.8zM557.3 440v7.8h27V440q0-2.5-.4-3.5-.5-1-2.6-1.2-2.2-.2-7.4-.2h-12q-4.7 0-4.7 5zm83 12.4H609v-14.2h31.3v14.2zm52.4 27H665q-6.5 0-9.3-.8-2.7-1-2.7-1.7l3-9.3q3 .4 10.4.8 7.6.5 18.8.5h4.8q2.5 0 3-1.7.7-1.6.7-4.5 0-2.8-.8-4.5-.7-1.7-3-1.7h-24q-6.8 0-10-3.3-3-3.2-3-9.8v-5q0-1.7.3-4 .3-2.4 1.5-4.7 1-2.3 3.8-4 2.6-1.5 7.3-1.5h27q5.8 0 8.3 1 2.4.8 2.4 1.7l-1 9.2q-3-.4-10.5-.8-7.6-.4-18.7-.4h-5q-2.4 0-3 1.6-.7 1.7-.7 4 0 2.3.7 4 .6 1.5 3 1.5h24q6.6 0 9.8 3.4 3 3.5 3 8.8v7.2q0 2.2-.3 4.7-.2 2.4-1.4 4.6-1 2-3.8 3.5-2.6 1.3-7.4 1.3zm55.2 0h-19.6q-5 0-7.5-1.6-2.7-1.6-3.8-4-1-2.5-1.4-5.2-.2-2.7-.2-5V440q0-1.8.2-4.5.3-2.6 1.4-5.2 1-2.6 3.8-4.3 2.7-1.7 7.5-1.7h21q6.5 0 10 1.5 3.7 1.6 5.2 5 1.5 3.5 1.5 9.2v18.2h-17q-8.8 0-14.3-.5-5.5-.5-7.4-.6v6.8q-.1 5 4.7 5h5q5.3 0 10.3-.2 5-.2 9.2-.5 4.3-.3 6.8-.6l4 8q0 3.8-19.3 3.8zM727.2 440v7.8h27V440q0-2.5-.4-3.5-.5-1-2.6-1.2-2.2-.2-7.4-.2H732q-4.7 0-4.7 5z"/><use href="#E"/><path d="M856.7 479.4H841l-20-55h13.7l11.2 34 2.6 8.8h1l2.6-8.8 11.4-34h13.3L875 432l-18.4 47.5zm58.3 0h-19.6q-5 0-7.5-1.6-2.7-1.6-3.8-4-1-2.5-1.4-5.2-.2-2.7-.2-5V440q0-1.8.2-4.5.3-2.6 1.4-5.2 1-2.6 3.8-4.3 2.7-1.7 7.5-1.7h21q6.5 0 10 1.5 3.7 1.6 5.2 5 1.5 3.5 1.5 9.2v18.2h-17q-8.8 0-14.3-.5-5.5-.5-7.4-.6v6.8q-.1 5 4.7 5h5q5.3 0 10.3-.2 5-.2 9.2-.5 4.3-.3 6.8-.6l4 8q0 3.8-19.3 3.8zM894.4 440v7.8h27V440q0-2.5-.4-3.5-.5-1-2.6-1.2-2.2-.2-7.4-.2h-12q-4.7 0-4.7 5z"/><use href="#E" x="167.2"/></g><g stroke="none"><circle cx="633" cy="224.5" fill="url(#B)" r="119.4"/><rect fill="#ff8202" height="124.1" rx="10" width="20.7" x="568.4" y="175.4"/><g fill="#ffad17"><rect height="113.7" rx="10" width="103.4" x="589.1" y="175.4"/><rect height="41.4" rx="10" width="56.9" x="640.8" y="159.9"/><rect height="27.2" rx="10" width="79.2" transform="matrix(.98 -.17 .17 .98 583.94 278.78)"/></g><rect fill="#feca55" height="20.7" rx="10" width="103" transform="matrix(.98 -.17 .17 .98 573.59 161.4)"/></g><g fill="url(#C)" transform="translate(562.2 139.2)"><path d="M109.8.1L99 2.4c-.7.1-4.8 1-9.2 1.8L72.3 7.8l-17.7 3.7L27 17C20 18.2 14 20 11 21.3 5.7 24 1.6 29.2.4 34.7.1 36 0 52.6 0 90l.8 57c1.6 8.2 6 14.3 14 19 4.5 2.7 10.8 4.6 15.7 4.6 2 0 10.7-1.4 24.7-4l10.8-2c1-.1 6.3-1 12-2l13.6-2.4a896 896 0 0 0 27.9-5c10-2 12.4-2.8 15.6-5.7 2.2-2 3.3-4 4.6-7.2l1-2.3V83.5 27l-1-2c-1.3-3-4.3-5.8-7.2-6.7-2-.6-2.4-.6-6 0l-5 1-1.2.2-.1-7c-.1-8.2-.4-8.8-3.2-11-1.3-1-2-1.2-4-1.3l-3.2.1zm1.7 15l-.2 5.8h-1l-9.5 1.6-11.4 2-15 2.5-9.5 1.6-8.2 1.2-11.2 2-12.6 2C24 35 21 35 18 33.7a12 12 0 0 1-3-2l-1-1 1.7-.7a28 28 0 0 1 4.3-1.3c1.5-.4 6.2-1.4 10.4-2.3l9.3-2c1-.1 5-1 9-2l9.2-2c.8-.1 4.5-1 8-1.7l10-2 11-2.3 9.3-2c.8-.1 4.5-1 8-1.7l7-1.5c.1 0 .2 2.6.2 5.7zm19 13l1 .4v55.4l-2.2 58.8c-1.6 1.5-4 2.4-8.5 3l-35 6-12 2-9.5 1.7c-3.6.7-8 1.5-9.5 1.7l-11.5 2-12 1.8-1-.1v-59l.2-59 1.5-.1c1.4-.1 3.5-.5 15-2.5l7-1.2c2-.2 17-2.7 35.5-6l12.8-2a124 124 0 0 0 10.6-1.7l14.5-2.2c1.4 0 2.7.1 3.2.4zM15 42.7c1 .5 2.6 1 3.6 1.2l2 .4v57l-.4 57c-.7 0-5-3-6.4-4.7-2-2.4-3.7-5.6-4.2-8.5C9 143 9 116.4 9 45.5v-7l2 1.7c1.2 1 2.8 2 3.8 2.5z" fill-rule="nonzero" stroke="none"/><g fill="url(#D)" transform="translate(42.3 51)" fill-rule="nonzero" stroke="none"><path d="M19.5.1c-.2.1-1 .4-1.7.7-1.7.8-2 1.6-2 4.8V8l-1.4 1c-.7.6-1.6 1-2 1-.3 0-1-.4-1.7-.8-1.4-1-2.8-1.5-3.6-1-1 .4-4 4.2-4.6 6-.3.8.1 1.5 2.2 3.6l1.8 1.8-.2 1.4c-.3 2-.5 2.4-2.3 3-3.3 1-4.3 2.2-4 5 .1 1 .4 2.2 1 3 1 2 2.3 2.4 4.6 1.6 2-.7 2.7-.5 3.6.8.5.6 1 1.3 1 1.5 0 .1-.4 1-.8 1.8-1 2-1.3 3.5-.6 4.5 1 1.7 4 3.5 5.7 3.5.8 0 1.2-.2 2-1.2a13 13 0 0 0 1.6-2.1l.4-1 2.2.1c1.2.1 2.3.3 2.5.5s.5 1 .6 1.6L24 45l.5-.7c1-1.2 2.6-2 4.8-2.3 1-.1 2-.3 2-.4s-.3-1-1-2c-.8-1.5-1-2-1-3.5 0-2.3 1-4 3.4-6.4 3.4-3 7.4-5 9.7-4.7 1.2.1 2.7-.4 3.3-1.5.6-.8.4-4-.4-5.4-.7-1.3-1.5-1.7-4-1.7-2 0-2 0-2.6-.8-1-1.6-1.2-2.4-.3-3.8 1.2-2 1.7-3.7 1.3-4.6-.5-1.4-4-3.8-5.6-3.8-.7 0-1.2.3-2.7 1.8-2 2-2.7 2-4.3 1.4-1.2-.5-1.7-1-1.7-2 0-1.5-.6-3-1.5-3.8-1-.8-1-1-2.6-1l-2 .1zm7.8 16c1.8.8 3.7 2.8 4.3 4.4.6 1.8.6 4.7 0 6.6-.7 1.8-2.7 4-4.7 5-4 1.8-8.7.2-10.6-3.8a9 9 0 0 1 4-11.9c1.5-.7 2-.8 3.8-.8a7 7 0 0 1 3.2.6z"/><path d="M54 24.4c-1 .7-1.6 2.4-2 4.7-.1 1-.4 2-.6 2-.4.3-4.4 1.6-5 1.6-.3 0-1.2-.7-2-1.7-2.5-3-3.4-3-7-.2-3.2 2.5-4.3 4-4 5.4.1.4.8 1.7 1.4 2.8 1.4 2.2 1.4 2.6.2 4.5-.8 1.6-1.5 2-3.8 2-3.8.3-4.6 1.2-4.8 5.3-.3 4.5.6 6.2 3.7 6.8 1 .2 2 .3 2.5.4 1 .2 1.5 1 2 3 .2 1.5.2 2-.1 2.4-.2.3-1 1.2-1.7 2.2-2.3 3-2 4 .8 7 3.3 3.3 4.6 3.5 8 1 1-.7 2-1.3 2.2-1.3s1 .3 1.5.6l1 .6V76c.2 3.3.6 4 2.3 4.6 2 .7 5 .7 6.3 0 1-.7 1.4-1.3 1.6-3.8.2-2 .5-2.6 2-2.8 1-.2 1-.2 2.2 1.5 2 2.7 2.8 3.3 4 3.3 1.5 0 4-1.5 5.6-3.2 1.3-1.4 1.4-2.3.6-4-1.8-4-1.8-4-1.3-4.8.3-.5 1-1.3 1.3-1.8.7-.8 1-1 1.8-.7.6.1 2 .2 3 .3l2 .2 1-1c.8-.8 1.2-1.6 1.8-3.5.4-1.3.7-3 .7-3.6 0-1-.1-1.3-1-2-.7-.6-2-1.4-3-1.8-2.6-1-3-1.5-3.2-4v-2l1.7-1.4c3.7-3 4-3.8 2-7.6-1.8-3.6-3.6-5-5.2-4.4L69.6 35 67.2 36l-1.8-1c-2-1.4-2.8-2.3-2.3-3.5a17 17 0 0 0 .2-2.8c0-1.7-.1-2.2-.5-2.8-.3-.5-.7-.8-1-.8-.1 0-.6-.2-1-.4-2.5-1.2-5.6-1.3-6.8-.4zM56.3 43c1.8.5 2.4.8 3.8 2a10 10 0 0 1 2.5 3.3c.8 1.7 1 2 1 4.7s-.1 3-1 4.7c-1.5 3-4.2 5-7.2 5.6a11 11 0 0 1-6.5-.8c-2-1-3.3-2.4-4.5-4.7-.8-1.6-.8-2-.8-4.3-.1-2 0-2.8.6-4 1.7-3.7 4-5.8 7.2-6.7 2.2-.6 2.6-.6 5 .1z"/></g></g><g stroke="none"><circle cx="517.9" cy="126.4" fill="#ff8202" r="12.8"/><circle cx="749.8" cy="324.2" r="20.3"/><g fill="#ff8202"><circle cx="750.3" cy="324.7" r="14.9"/><circle cx="517.9" cy="322.6" r="12.8"/></g><g fill="#ffad17"><circle cx="731.1" cy="117.9" r="12.8"/><circle cx="780.2" cy="230.9" r="10.7"/></g><circle cx="488" cy="241.5" fill="#ff8202" r="8.5"/></g><g fill="#4f4f4f" stroke="none"><path d="M138.6 559h-2q-1.5 0-2.8-.6-1.3-.5-2.2-1.5-1-1-1.5-2.2-.6-1.3-.6-2.7v-15.5q0-1.4.6-2.7.5-1.3 1.5-2.2 1-1 2.2-1.5 1.3-.6 2.8-.6h2q1.5 0 2.7.6 1.3.5 2.3 1.5 1 1 1.5 2.2.6 1.3.6 2.7V552q0 1.4-.6 2.7-.5 1.3-1.5 2.2-1 1-2.3 1.5-1.2.6-2.7.6zm4.5-7v-15.5q0-1-.4-1.7-.4-1-1-1.5-.6-.6-1.4-1-1-.3-1.8-.3h-1.8q-1 0-1.8.3-.8.4-1.5 1-.6.6-1 1.5-.3.8-.3 1.7V552q0 1 .3 1.7.4 1 1 1.5.7.6 1.5 1 .8.4 1.8.4h1.8q1 0 1.8-.4.8-.4 1.4-1 .6-.6 1-1.5.4-.8.4-1.7zm15.6 7h-.7q-1.3 0-2.5-.6-1.2-.5-2-1.5v10H151v-29h.8l1.4 2q.8-1.2 2-1.8 1.2-.7 2.7-.7h.7q1.2 0 2.3.5 1 .4 2 1.3.8.8 1.3 2 .5 1 .5 2.3v9.3q0 1.2-.5 2.3-.5 1-1.3 2-.8 1-2 1.3-1 .5-2.3.5zm3.5-6v-9.5q0-.8-.3-1.4-.2-.7-.7-1-.5-.5-1-.8-.7-.3-1.4-.3H157q-.7 0-1.4.3-.6.3-1 .8-.5.4-.8 1-.2.6-.2 1.4v9.5q0 .8.2 1.4.3.7.8 1 .5.5 1 .8.7.3 1.4.3h1.7q.7 0 1.4-.3.6-.3 1-.8.5-.4.7-1 .3-.6.3-1.4zm15 6h-1.7q-1.2 0-2.3-.5-1-.4-2-1.3-1-.8-1.3-2-.5-1-.5-2.3v-9.3q0-1.2.5-2.3.4-1 1.3-2 .8-1 2-1.3 1-.5 2.3-.5h1.7q1.2 0 2.3.5 1 .4 2 1.3.8.8 1.3 2 .5 1 .5 2.3v4.8H172v4.6q0 .8.2 1.4.3.7.8 1 .5.5 1 .8.7.3 1.4.3h1.7q.7 0 1.4-.3.6-.3 1-.8.5-.4.7-1 .3-.6.3-1.4v-1.4l2.5.4v1q0 1.2-.5 2.3-.5 1-1.3 2-.8 1-2 1.3-1 .5-2.3.5zm3.5-12.4v-3q0-.8-.3-1.4-.2-.7-.7-1-.5-.5-1-.8-.7-.3-1.4-.3h-1.7q-.7 0-1.4.3-.6.3-1 .8-.5.4-.8 1-.2.6-.2 1.4v3h8.7zm21.2 12h-2.5v-15q0-.8-.3-1.4-.2-.7-.7-1-.5-.5-1-.8-.7-.3-1.4-.3h-1.7q-.7 0-1.4.3-.6.3-1 .8-.5.4-.8 1-.2.6-.2 1.4v15h-2.5V538h.8l1.4 2q.8-1.2 2-1.8 1.2-.7 2.7-.7h.7q1.2 0 2.3.5 1 .4 2 1.3.8.8 1.3 2 .5 1 .5 2.3v15zm12-12.6h-7.7v-2.3h7.7v2.3zm12.5 13h-1.7q-1.2 0-2.3-.5-1.2-.4-2-1.3-1-.8-1.4-2-.5-1-.5-2.3v-1l2.5-.4v1.4q0 .8.3 1.4.3.7.8 1 .5.5 1.2.8.7.3 1.4.3h1.7q.7 0 1.4-.2.7-.3 1.2-.7.5-.4.8-1 .3-.5.3-1.3 0-1-.4-1.8-.5-.7-1.3-1.2-.8-.4-1.8-.7-1-.4-2-.7-1-.3-2-.7-1-.4-1.8-1-.8-.7-1.3-1.7-.5-1-.5-2.4 0-1.2.5-2.3.5-1 1.3-1.7.8-.8 2-1.2 1-.4 2.3-.4h1.5q1.2 0 2.3.5 1 .4 2 1.3.8.8 1.3 2 .5 1 .5 2.3v.1l-2.5.4v-.6q0-.8-.3-1.4-.2-.7-.7-1-.5-.5-1-.8-.7-.3-1.4-.3h-2q-.7 0-1.4.2-.6.3-1 .7-.5.4-.8 1-.2.5-.2 1.3 0 1 .4 1.7.5.7 1.3 1 .8.5 1.8.8 1 .3 2 .7 1 .3 2 .7 1 .4 1.8 1 .8.6 1.3 1.6.5 1 .5 2.5 0 1.2-.5 2.3-.5 1-1.4 1.7-.8.8-2 1.2-1 .4-2.3.4z"/><use href="#F"/><use href="#G"/><use href="#H"/><path d="M294 559h-1.7q-1.2 0-2.3-.5-1-.4-2-1.3-1-.8-1.3-2-.5-1-.5-2.3v-9.3q0-1.2.5-2.3.4-1 1.3-2 .8-1 2-1.3 1-.5 2.3-.5h1.7q1.2 0 2.3.5 1 .4 2 1.3.8.8 1.3 2 .5 1 .5 2.3v.8l-2.5.4v-1.3q0-.8-.3-1.4-.2-.7-.7-1-.5-.5-1-.8-.7-.3-1.4-.3h-1.7q-.7 0-1.4.3-.6.3-1 .8-.5.4-.8 1-.2.6-.2 1.4v9.5q0 .8.2 1.4.3.7.8 1 .5.5 1 .8.7.3 1.4.3h1.7q.7 0 1.4-.3.6-.3 1-.8.5-.4.7-1 .3-.6.3-1.4v-1.4l2.5.4v1q0 1.2-.5 2.3-.5 1-1.3 2-.8 1-2 1.3-1 .5-2.3.5zm18.7 0H311q-1.2 0-2.3-.5-1-.4-2-1.3-1-.8-1.3-2-.5-1-.5-2.3v-9.3q0-1.2.5-2.3.4-1 1.3-2 .8-1 2-1.3 1-.5 2.3-.5h1.7q1.2 0 2.3.5 1 .4 2 1.3.8.8 1.3 2 .5 1 .5 2.3v4.8h-11.2v4.6q0 .8.2 1.4.3.7.8 1 .5.5 1 .8.7.3 1.4.3h1.7q.7 0 1.4-.3.6-.3 1-.8.5-.4.7-1 .3-.6.3-1.4v-1.4l2.5.4v1q0 1.2-.5 2.3-.5 1-1.3 2-.8 1-2 1.3-1 .5-2.3.5zm3.5-12.4v-3q0-.8-.3-1.4-.2-.7-.7-1-.5-.5-1-.8-.7-.3-1.4-.3H311q-.7 0-1.4.3-.6.3-1 .8-.5.4-.8 1-.2.6-.2 1.4v3h8.7zm41 12h-2.5v-15q0-.8-.2-1.4-.3-.7-.8-1-.5-.5-1-.8-.7-.3-1.4-.3H350q-.8 0-1.4.3-.7.3-1.2.8-.5.4-.8 1-.2.6-.2 1.4v15H344v-15q0-.8-.3-1.4-.2-.7-.7-1-.5-.5-1.2-.8-.6-.3-1.4-.3H339q-.7 0-1.4.3-.6.3-1 .8-.5.4-.8 1-.2.6-.2 1.4v15H333V538h.8l1.4 2q.8-1.2 2-1.8 1.2-.7 2.7-.7h.2q1.8 0 3.2 1 1.4.8 2 2.2.4-.7 1-1.2.6-.6 1.2-1 .7-.4 1.5-.7.8-.2 1.7-.2h.2q1.2 0 2.3.5 1 .4 2 1.3 1 .8 1.3 2 .5 1 .5 2.3v15zm12.6.4H368q-1.2 0-2.3-.5-1-.4-2-1.3-1-.8-1.3-2-.5-1-.5-2.3v-9.3q0-1.2.5-2.3.4-1 1.3-2 .8-1 2-1.3 1-.5 2.3-.5h1.7q1.2 0 2.3.5 1 .4 2 1.3.8.8 1.3 2 .5 1 .5 2.3v9.3q0 1.2-.5 2.3-.5 1-1.3 2-.8 1-2 1.3-1 .5-2.3.5zm3.5-6v-9.5q0-.8-.3-1.4-.2-.7-.7-1-.5-.5-1-.8-.7-.3-1.4-.3h-2q-.7 0-1.4.3-.6.3-1 .8-.5.4-.8 1-.2.6-.2 1.4v9.5q0 .8.2 1.4.3.7.8 1 .5.5 1 .8.7.3 1.4.3h1.7q.7 0 1.4-.3.6-.3 1-.8.5-.4.7-1 .3-.6.3-1.4zm21 5.6h-.8l-1.4-2q-.8 1.2-2 1.8-1.3.7-2.8.7h-.6q-1.2 0-2.3-.5-1-.4-2-1.3-1-.8-1.3-2-.5-1-.5-2.3v-9.3q0-1.2.5-2.3.4-1 1.3-2 .8-1 2-1.3 1-.5 2.3-.5h.6q1.4 0 2.6.6 1.2.5 2 1.5v-10h2.5v28.7zM392 553v-9.5q0-.8-.3-1.4-.2-.7-.7-1-.5-.5-1-.8-.7-.3-1.4-.3H387q-.7 0-1.4.3-.6.3-1 .8-.5.4-.8 1-.2.6-.2 1.4v9.5q0 .8.2 1.4.3.7.8 1 .5.5 1 .8.7.3 1.4.3h1.7q.7 0 1.4-.3.6-.3 1-.8.5-.4.7-1 .3-.6.3-1.4z"/><use href="#I"/><path d="M426.4 540.4H424q-.7 0-1.4.3-.6.3-1 .8-.5.5-.8 1-.2.7-.2 1.4v14.6H418V538h.8l1.4 2q.8-1.2 2-1.8 1.2-.7 2.7-.7h1.5v2.7zm17 18.2H441v-15q0-.8-.3-1.4-.2-.7-.7-1-.5-.5-1-.8-.7-.3-1.4-.3H436q-.7 0-1.4.3-.6.3-1 .8-.5.4-.8 1-.2.6-.2 1.4v15H430V538h.8l1.4 2q.8-1.2 2-1.8 1.2-.7 2.7-.7h.7q1.2 0 2.3.5 1 .4 2 1.3.8.8 1.3 2 .5 1 .5 2.3v15zm24.2 0h-9V530h9q1.4 0 2.7.6 1.3.5 2.3 1.5 1 1 1.5 2.2.6 1.3.6 2.8v14.6q0 1.4-.6 2.7-.5 1.3-1.5 2.2-1 1-2.3 1.5-1.3.6-2.7.6zm4.5-7V537q0-1-.4-1.8-.4-1-1-1.5-.6-.6-1.4-1-1-.3-1.8-.3H461V556h6.4q1 0 1.8-.3.8-.4 1.4-1 .6-.6 1-1.5.4-.8.4-1.7z"/><use href="#J"/><path d="M519.3 551v1q0 1.4-.6 2.7-.6 1.3-1.6 2.2-1 1-2.3 1.5-1.3.6-2.8.6h-2q-1.4 0-2.7-.6-1.3-.5-2.3-1.5-1-1-1.6-2.2-.6-1.3-.6-2.7v-1.2l2.6-.4v1.6q0 1 .4 1.7.4 1 1 1.5.7.6 1.6 1 .8.4 1.8.4h1.8q1 0 1.8-.4 1-.4 1.5-1 .7-.6 1-1.5.4-.8.4-1.7v-1q0-1.5-.6-2.5-.6-1-1.6-1.6-1-.7-2-1.2-1.2-.5-2.5-1-1.3-.5-2.5-1-1.2-.6-2.2-1.5-1-1-1.5-2-.6-1.3-.6-3v-.6q0-1.4.6-2.7.5-1.3 1.5-2.2 1-1 2.2-1.5 1.3-.6 2.8-.6h1.8q1.5 0 2.7.6 1.3.5 2.3 1.5 1 1 1.5 2.2.6 1.3.6 2.7v.8l-2.6.4v-1.2q0-1-.4-1.7-.4-1-1-1.5-.6-.6-1.4-1-1-.3-1.8-.3h-1.6q-1 0-1.8.3-.8.4-1.5 1-.6.6-1 1.5-.3.8-.3 1.7v.6q0 1.4.6 2.3.5 1 1.5 1.6 1 .7 2.2 1.2 1.2.5 2.5 1 1.2.5 2.5 1 1.2.6 2 1.5 1 1 1.6 2.2.6 1.3.6 3z"/><use href="#K"/><use href="#I" x="153"/><path d="M579.4 540.4H577q-.7 0-1.4.3-.6.3-1 .8-.5.5-.8 1-.2.7-.2 1.4v14.6H571V538h.8l1.4 2q.8-1.2 2-1.8 1.2-.7 2.7-.7h1.5v2.7zm17-2.4l-7.2 20.5h-1l-7.3-20.5h2.5l5.3 15.5.1 1 .1-1L594 538h2.4z"/><use href="#I" x="200"/><use href="#H" x="343.3"/><path d="M663 538l-7 20.5h-1l-5-15.5v-1 1l-4.8 15.5h-1.4L637 538h2.5l5 15.5.1 1v-1l4.8-15.5h1.5l4.8 15.5.1 1 .1-1 5-15.5h2.5zm6.3 20.6h-2.5V538h2.5v20.5zm.2-25.4h-3V530h3v3.3z"/><use href="#L"/><path d="M703 558.6h-2.5v-15q0-.8-.3-1.4-.2-.7-.7-1-.5-.5-1-.8-.7-.3-1.4-.3h-1.7q-.7 0-1.4.3-.6.3-1 .8-.5.4-.8 1-.2.6-.2 1.4v15h-2.5V530h2.5v10q.8-1 2-1.5 1.2-.6 2.5-.6h.7q1.2 0 2.3.5 1 .4 2 1.3.8.8 1.3 2 .5 1 .5 2.3v15zm24.2 0h-9V530h9q1.4 0 2.7.6 1.3.5 2.3 1.5 1 1 1.5 2.2.6 1.3.6 2.8v14.6q0 1.4-.6 2.7-.5 1.3-1.5 2.2-1 1-2.3 1.5-1.3.6-2.7.6zm4.5-7V537q0-1-.4-1.8-.4-1-1-1.5-.6-.6-1.4-1-1-.3-1.8-.3h-6.4V556h6.4q1 0 1.8-.3.8-.4 1.4-1 .6-.6 1-1.5.4-.8.4-1.7z"/><use href="#J" x="259.6"/><path d="M779 551v1q0 1.4-.6 2.7-.6 1.3-1.6 2.2-1 1-2.3 1.5-1.3.6-2.8.6h-2q-1.4 0-2.7-.6-1.3-.5-2.3-1.5-1-1-1.6-2.2-.6-1.3-.6-2.7v-1.2l2.6-.4v1.6q0 1 .4 1.7.4 1 1 1.5.7.6 1.6 1 .8.4 1.8.4h1.8q1 0 1.8-.4 1-.4 1.5-1 .7-.6 1-1.5.4-.8.4-1.7v-1q0-1.5-.6-2.5-.6-1-1.6-1.6-1-.7-2-1.2-1.2-.5-2.5-1-1.3-.5-2.5-1-1.2-.6-2.2-1.5-1-1-1.5-2-.6-1.3-.6-3v-.6q0-1.4.6-2.7.5-1.3 1.5-2.2 1-1 2.2-1.5 1.3-.6 2.8-.6h1.8q1.5 0 2.7.6 1.3.5 2.3 1.5 1 1 1.5 2.2.6 1.3.6 2.7v.8l-2.6.4v-1.2q0-1-.4-1.7-.4-1-1-1.5-.6-.6-1.4-1-1-.3-1.8-.3H770q-1 0-1.8.3-.8.4-1.5 1-.6.6-1 1.5-.3.8-.3 1.7v.6q0 1.4.6 2.3.5 1 1.5 1.6 1 .7 2.2 1.2 1.2.5 2.5 1 1.2.5 2.5 1 1.2.6 2 1.5 1 1 1.6 2.2.6 1.3.6 3zm21 0v1q0 1.4-.6 2.7-.6 1.3-1.6 2.2-1 1-2.3 1.5-1.3.6-2.8.6h-2q-1.4 0-2.7-.6-1.3-.5-2.3-1.5-1-1-1.6-2.2-.6-1.3-.6-2.7v-1.2l2.6-.4v1.6q0 1 .4 1.7.4 1 1 1.5.7.6 1.6 1 .8.4 1.8.4h1.8q1 0 1.8-.4 1-.4 1.5-1 .7-.6 1-1.5.4-.8.4-1.7v-1q0-1.5-.6-2.5-.6-1-1.6-1.6-1-.7-2-1.2-1.2-.5-2.5-1-1.3-.5-2.5-1-1.2-.6-2.2-1.5-1-1-1.5-2-.6-1.3-.6-3v-.6q0-1.4.6-2.7.5-1.3 1.5-2.2 1-1 2.2-1.5 1.3-.6 2.8-.6h1.8q1.5 0 2.7.6 1.3.5 2.3 1.5 1 1 1.5 2.2.6 1.3.6 2.7v.8l-2.6.4v-1.2q0-1-.4-1.7-.4-1-1-1.5-.6-.6-1.4-1-1-.3-1.8-.3H791q-1 0-1.8.3-.8.4-1.5 1-.6.6-1 1.5-.3.8-.3 1.7v.6q0 1.4.6 2.3.5 1 1.5 1.6 1 .7 2.2 1.2 1.2.5 2.5 1 1.2.5 2.5 1 1.2.6 2 1.5 1 1 1.6 2.2.6 1.3.6 3zm21.8 7.6h-16.2V530h16.2v2.5h-13.6V543h11v2.5h-11V556h13.6v2.5zm13.6.4h-2q-1.5 0-2.8-.6-1.3-.5-2.2-1.5-1-1-1.5-2.2-.6-1.3-.6-2.7v-15.5q0-1.4.6-2.7.5-1.3 1.5-2.2 1-1 2.2-1.5 1.3-.6 2.8-.6h2q1.5 0 2.7.6 1.3.5 2.3 1.5 1 1 1.5 2.2.6 1.3.6 2.7v1.2l-2.6.4v-1.6q0-1-.4-1.7-.4-1-1-1.5-.6-.6-1.4-1-1-.3-1.8-.3h-1.8q-1 0-1.8.3-.8.4-1.5 1-.6.6-1 1.5-.3.8-.3 1.7V552q0 1 .3 1.7.4 1 1 1.5.7.6 1.5 1 .8.4 1.8.4h1.8q1 0 1.8-.4.8-.4 1.4-1 .6-.6 1-1.5.4-.8.4-1.7v-1.6l2.6.4v1.2q0 1.4-.6 2.7-.5 1.3-1.5 2.2-1 1-2.3 1.5-1.2.6-2.7.6zm29.3 0H863q-1.2 0-2.3-.5-1.2-.4-2-1.3-1-.8-1.4-2-.5-1-.5-2.3v-1l2.5-.4v1.4q0 .8.3 1.4.3.7.8 1 .5.5 1.2.8.7.3 1.4.3h1.7q.7 0 1.4-.2.7-.3 1.2-.7.5-.4.8-1 .3-.5.3-1.3 0-1-.4-1.8-.5-.7-1.3-1.2-.8-.4-1.8-.7-1-.4-2-.7-1-.3-2-.7-1-.4-1.8-1-.8-.7-1.3-1.7-.5-1-.5-2.4 0-1.2.5-2.3.5-1 1.3-1.7.8-.8 2-1.2 1-.4 2.3-.4h1.5q1.2 0 2.3.5 1 .4 2 1.3.8.8 1.3 2 .5 1 .5 2.3v.1l-2.5.4v-.6q0-.8-.3-1.4-.2-.7-.7-1-.5-.5-1-.8-.7-.3-1.4-.3h-1.5q-.7 0-1.4.2-.6.3-1 .7-.5.4-.8 1-.2.5-.2 1.3 0 1 .4 1.7.5.7 1.3 1 .8.5 1.8.8 1 .3 2 .7 1 .3 2 .7 1 .4 1.8 1 .8.6 1.3 1.6.5 1 .5 2.5 0 1.2-.5 2.3-.5 1-1.4 1.7-.8.8-2 1.2-1 .4-2.3.4z"/><use href="#G" x="619.6"/><use href="#M"/><use href="#M" x="18.5"/><use href="#F" x="694"/><path d="M958.5 540.4H956q-.7 0-1.4.3-.6.3-1 .8-.5.5-.8 1-.2.7-.2 1.4v14.6H950V538h.8l1.4 2q.8-1.2 2-1.8 1.2-.7 2.7-.7h1.5v2.7z"/><use href="#L" x="286.9"/><path d="M994.8 532.2h-2.3q-.6 0-1 .3-.6.2-1 .6-.4.4-.6 1-.2.6-.2 1.2v3h4.7v2.3h-4.7v18.2H987v-18.2h-3.7V538h3.7v-2.8q0-1 .4-2 .4-1 1.2-1.7.7-.8 1.7-1.2 1-.4 2-.4h2.3v2.3z"/><use href="#F" x="760"/><use href="#H" x="741.3"/><use href="#J" x="557"/><use href="#F" x="822"/><path d="M1091.7 558.6h-.8l-1.4-2q-.8 1.2-2 1.8-1.3.7-2.8.7h-.6q-1.2 0-2.3-.5-1-.4-2-1.3-1-.8-1.3-2-.5-1-.5-2.3v-9.3q0-1.2.5-2.3.4-1 1.3-2 .8-1 2-1.3 1-.5 2.3-.5h.6q1.4 0 2.6.6 1.2.5 2 1.5v-10h2.5v28.7zm-2.5-5.5v-9.5q0-.8-.3-1.4-.2-.7-.7-1-.5-.5-1-.8-.7-.3-1.4-.3h-1.7q-.7 0-1.4.3-.6.3-1 .8-.5.4-.8 1-.2.6-.2 1.4v9.5q0 .8.2 1.4.3.7.8 1 .5.5 1 .8.7.3 1.4.3h1.7q.7 0 1.4-.3.6-.3 1-.8.5-.4.7-1 .3-.6.3-1.4zm15 6h-1.7q-1.2 0-2.3-.5-1-.4-2-1.3-1-.8-1.3-2-.5-1-.5-2.3v-9.3q0-1.2.5-2.3.4-1 1.3-2 .8-1 2-1.3 1-.5 2.3-.5h1.7q1.2 0 2.3.5 1 .4 2 1.3.8.8 1.3 2 .5 1 .5 2.3v4.8H1099v4.6q0 .8.2 1.4.3.7.8 1 .5.5 1 .8.7.3 1.4.3h1.7q.7 0 1.4-.3.6-.3 1-.8.5-.4.7-1 .3-.6.3-1.4v-1.4l2.5.4v1q0 1.2-.5 2.3-.5 1-1.3 2-.8 1-2 1.3-1 .5-2.3.5zm3.5-12.4v-3q0-.8-.3-1.4-.2-.7-.7-1-.5-.5-1-.8-.7-.3-1.4-.3h-1.7q-.7 0-1.4.3-.6.3-1 .8-.5.4-.8 1-.2.6-.2 1.4v3h8.7zm10.5 12h-3v-3h3v3zm2.7 8.2v-2.3q.7 0 1.4-.3.6-.3 1-.8.5-.5.8-1 .3-.7.3-1.4v-23h2.4v22.7q0 1.2-.4 2.3-.5 1-1.3 2-1 .8-2 1.3-1 .5-2.3.5zm6.2-33.6h-2.8V530h2.8v3.3z"/><use href="#K" x="599.2"/></g></svg>